solid OpenSCAD_Model
  facet normal -1 0 0
    outer loop
      vertex -3.5 -3.5 -3.5
      vertex -3.5 3.5 -0.5
      vertex -3.5 3.5 -3.5
    endloop
  endfacet
  facet normal -1 -0 0
    outer loop
      vertex -3.5 3.5 -0.5
      vertex -3.5 -3.5 -3.5
      vertex -3.5 -3.5 -0.5
    endloop
  endfacet
  facet normal 0 0 1
    outer loop
      vertex 3.5 3.5 -0.5
      vertex 1.7 0 -0.5
      vertex 3.5 -3.5 -0.5
    endloop
  endfacet
  facet normal 0 0 1
    outer loop
      vertex 3.5 3.5 -0.5
      vertex 1.57059 0.650561 -0.5
      vertex 1.7 0 -0.5
    endloop
  endfacet
  facet normal 0 0 1
    outer loop
      vertex 3.5 3.5 -0.5
      vertex 1.20208 1.20208 -0.5
      vertex 1.57059 0.650561 -0.5
    endloop
  endfacet
  facet normal 0 0 1
    outer loop
      vertex 3.5 3.5 -0.5
      vertex 0.650561 1.57059 -0.5
      vertex 1.20208 1.20208 -0.5
    endloop
  endfacet
  facet normal 0 0 1
    outer loop
      vertex 3.5 3.5 -0.5
      vertex 0 1.7 -0.5
      vertex 0.650561 1.57059 -0.5
    endloop
  endfacet
  facet normal -0 0 1
    outer loop
      vertex -3.5 3.5 -0.5
      vertex 0 1.7 -0.5
      vertex 3.5 3.5 -0.5
    endloop
  endfacet
  facet normal 0 0 1
    outer loop
      vertex -1.57059 0.650561 -0.5
      vertex -3.5 3.5 -0.5
      vertex -1.7 0 -0.5
    endloop
  endfacet
  facet normal 0 0 1
    outer loop
      vertex -1.20208 1.20208 -0.5
      vertex -3.5 3.5 -0.5
      vertex -1.57059 0.650561 -0.5
    endloop
  endfacet
  facet normal 0 0 1
    outer loop
      vertex -0.650561 1.57059 -0.5
      vertex -3.5 3.5 -0.5
      vertex -1.20208 1.20208 -0.5
    endloop
  endfacet
  facet normal 0 0 1
    outer loop
      vertex 0 1.7 -0.5
      vertex -3.5 3.5 -0.5
      vertex -0.650561 1.57059 -0.5
    endloop
  endfacet
  facet normal -0 0 1
    outer loop
      vertex 1.57059 -0.650561 -0.5
      vertex 3.5 -3.5 -0.5
      vertex 1.7 0 -0.5
    endloop
  endfacet
  facet normal -0 0 1
    outer loop
      vertex 1.20208 -1.20208 -0.5
      vertex 3.5 -3.5 -0.5
      vertex 1.57059 -0.650561 -0.5
    endloop
  endfacet
  facet normal -0 0 1
    outer loop
      vertex 0.650561 -1.57059 -0.5
      vertex 3.5 -3.5 -0.5
      vertex 1.20208 -1.20208 -0.5
    endloop
  endfacet
  facet normal -0 0 1
    outer loop
      vertex 0 -1.7 -0.5
      vertex 3.5 -3.5 -0.5
      vertex 0.650561 -1.57059 -0.5
    endloop
  endfacet
  facet normal 0 0 1
    outer loop
      vertex -3.5 -3.5 -0.5
      vertex 0 -1.7 -0.5
      vertex -0.650561 -1.57059 -0.5
    endloop
  endfacet
  facet normal 0 0 1
    outer loop
      vertex -3.5 -3.5 -0.5
      vertex -1.7 0 -0.5
      vertex -3.5 3.5 -0.5
    endloop
  endfacet
  facet normal 0 0 1
    outer loop
      vertex 0 -1.7 -0.5
      vertex -3.5 -3.5 -0.5
      vertex 3.5 -3.5 -0.5
    endloop
  endfacet
  facet normal 0 0 1
    outer loop
      vertex -1.20208 -1.20208 -0.5
      vertex -3.5 -3.5 -0.5
      vertex -0.650561 -1.57059 -0.5
    endloop
  endfacet
  facet normal 0 0 1
    outer loop
      vertex -1.57059 -0.650561 -0.5
      vertex -3.5 -3.5 -0.5
      vertex -1.20208 -1.20208 -0.5
    endloop
  endfacet
  facet normal 0 0 1
    outer loop
      vertex -1.7 0 -0.5
      vertex -3.5 -3.5 -0.5
      vertex -1.57059 -0.650561 -0.5
    endloop
  endfacet
  facet normal 1 -0 0
    outer loop
      vertex 3.5 -3.5 -0.5
      vertex 3.5 3.5 -3.5
      vertex 3.5 3.5 -0.5
    endloop
  endfacet
  facet normal 1 0 0
    outer loop
      vertex 3.5 3.5 -3.5
      vertex 3.5 -3.5 -0.5
      vertex 3.5 -3.5 -3.5
    endloop
  endfacet
  facet normal 0 1 -0
    outer loop
      vertex 3.5 3.5 -3.5
      vertex -3.5 3.5 -0.5
      vertex 3.5 3.5 -0.5
    endloop
  endfacet
  facet normal 0 1 0
    outer loop
      vertex -3.5 3.5 -0.5
      vertex 3.5 3.5 -3.5
      vertex -3.5 3.5 -3.5
    endloop
  endfacet
  facet normal 0 0 -1
    outer loop
      vertex 3.5 -3.5 -3.5
      vertex 1.7 0 -3.5
      vertex 3.5 3.5 -3.5
    endloop
  endfacet
  facet normal 0 0 -1
    outer loop
      vertex 3.5 -3.5 -3.5
      vertex 1.57059 -0.650561 -3.5
      vertex 1.7 0 -3.5
    endloop
  endfacet
  facet normal 0 0 -1
    outer loop
      vertex 3.5 -3.5 -3.5
      vertex 1.20208 -1.20208 -3.5
      vertex 1.57059 -0.650561 -3.5
    endloop
  endfacet
  facet normal 0 0 -1
    outer loop
      vertex 3.5 -3.5 -3.5
      vertex 0.650561 -1.57059 -3.5
      vertex 1.20208 -1.20208 -3.5
    endloop
  endfacet
  facet normal 0 0 -1
    outer loop
      vertex 3.5 -3.5 -3.5
      vertex 0 -1.7 -3.5
      vertex 0.650561 -1.57059 -3.5
    endloop
  endfacet
  facet normal 0 0 -1
    outer loop
      vertex -3.5 -3.5 -3.5
      vertex 0 -1.7 -3.5
      vertex 3.5 -3.5 -3.5
    endloop
  endfacet
  facet normal -0 0 -1
    outer loop
      vertex -1.57059 -0.650561 -3.5
      vertex -3.5 -3.5 -3.5
      vertex -1.7 0 -3.5
    endloop
  endfacet
  facet normal -0 0 -1
    outer loop
      vertex -1.20208 -1.20208 -3.5
      vertex -3.5 -3.5 -3.5
      vertex -1.57059 -0.650561 -3.5
    endloop
  endfacet
  facet normal -0 0 -1
    outer loop
      vertex -0.650561 -1.57059 -3.5
      vertex -3.5 -3.5 -3.5
      vertex -1.20208 -1.20208 -3.5
    endloop
  endfacet
  facet normal -0 0 -1
    outer loop
      vertex 0 -1.7 -3.5
      vertex -3.5 -3.5 -3.5
      vertex -0.650561 -1.57059 -3.5
    endloop
  endfacet
  facet normal 0 0 -1
    outer loop
      vertex 1.57059 0.650561 -3.5
      vertex 3.5 3.5 -3.5
      vertex 1.7 0 -3.5
    endloop
  endfacet
  facet normal 0 0 -1
    outer loop
      vertex 1.20208 1.20208 -3.5
      vertex 3.5 3.5 -3.5
      vertex 1.57059 0.650561 -3.5
    endloop
  endfacet
  facet normal 0 0 -1
    outer loop
      vertex 0.650561 1.57059 -3.5
      vertex 3.5 3.5 -3.5
      vertex 1.20208 1.20208 -3.5
    endloop
  endfacet
  facet normal 0 0 -1
    outer loop
      vertex 0 1.7 -3.5
      vertex 3.5 3.5 -3.5
      vertex 0.650561 1.57059 -3.5
    endloop
  endfacet
  facet normal 0 0 -1
    outer loop
      vertex -3.5 3.5 -3.5
      vertex 0 1.7 -3.5
      vertex -0.650561 1.57059 -3.5
    endloop
  endfacet
  facet normal 0 0 -1
    outer loop
      vertex -3.5 3.5 -3.5
      vertex -1.7 0 -3.5
      vertex -3.5 -3.5 -3.5
    endloop
  endfacet
  facet normal 0 0 -1
    outer loop
      vertex 0 1.7 -3.5
      vertex -3.5 3.5 -3.5
      vertex 3.5 3.5 -3.5
    endloop
  endfacet
  facet normal 0 0 -1
    outer loop
      vertex -1.20208 1.20208 -3.5
      vertex -3.5 3.5 -3.5
      vertex -0.650561 1.57059 -3.5
    endloop
  endfacet
  facet normal 0 0 -1
    outer loop
      vertex -1.57059 0.650561 -3.5
      vertex -3.5 3.5 -3.5
      vertex -1.20208 1.20208 -3.5
    endloop
  endfacet
  facet normal 0 0 -1
    outer loop
      vertex -1.7 0 -3.5
      vertex -3.5 3.5 -3.5
      vertex -1.57059 0.650561 -3.5
    endloop
  endfacet
  facet normal 0 -1 0
    outer loop
      vertex -3.5 -3.5 -3.5
      vertex 3.5 -3.5 -0.5
      vertex -3.5 -3.5 -0.5
    endloop
  endfacet
  facet normal 0 -1 -0
    outer loop
      vertex 3.5 -3.5 -0.5
      vertex -3.5 -3.5 -3.5
      vertex 3.5 -3.5 -3.5
    endloop
  endfacet
  facet normal -0.980783 -0.1951 0
    outer loop
      vertex 1.57059 0.650561 -3.5
      vertex 1.60054 0.5 -2.8
      vertex 1.57059 0.650561 -0.5
    endloop
  endfacet
  facet normal -0.980784 -0.195098 4.37074e-07
    outer loop
      vertex 1.7 0 -3.5
      vertex 1.60054 0.5 -2.8
      vertex 1.57059 0.650561 -3.5
    endloop
  endfacet
  facet normal -0.980784 -0.195098 0
    outer loop
      vertex 1.60054 0.5 -2.8
      vertex 1.7 0 -3.5
      vertex 1.7 0 -2.8
    endloop
  endfacet
  facet normal -0.980783 -0.1951 -0
    outer loop
      vertex 1.60054 0.5 -0.8
      vertex 1.57059 0.650561 -0.5
      vertex 1.60054 0.5 -2.8
    endloop
  endfacet
  facet normal -0.980784 -0.195098 -0
    outer loop
      vertex 1.7 0 -0.5
      vertex 1.60054 0.5 -0.8
      vertex 1.7 0 -0.8
    endloop
  endfacet
  facet normal -0.980784 -0.195098 -1.01984e-06
    outer loop
      vertex 1.60054 0.5 -0.8
      vertex 1.7 0 -0.5
      vertex 1.57059 0.650561 -0.5
    endloop
  endfacet
  facet normal 0.980783 -0.1951 0
    outer loop
      vertex -1.60054 0.5 -2.8
      vertex -1.57059 0.650561 -0.5
      vertex -1.60054 0.5 -0.8
    endloop
  endfacet
  facet normal 0.980784 -0.195098 -1.01984e-06
    outer loop
      vertex -1.7 0 -0.5
      vertex -1.60054 0.5 -0.8
      vertex -1.57059 0.650561 -0.5
    endloop
  endfacet
  facet normal 0.980784 -0.195098 0
    outer loop
      vertex -1.60054 0.5 -0.8
      vertex -1.7 0 -0.5
      vertex -1.7 0 -0.8
    endloop
  endfacet
  facet normal 0.980783 -0.1951 0
    outer loop
      vertex -1.57059 0.650561 -0.5
      vertex -1.60054 0.5 -2.8
      vertex -1.57059 0.650561 -3.5
    endloop
  endfacet
  facet normal 0.980784 -0.195098 0
    outer loop
      vertex -1.7 0 -3.5
      vertex -1.60054 0.5 -2.8
      vertex -1.7 0 -2.8
    endloop
  endfacet
  facet normal 0.980784 -0.195098 4.37074e-07
    outer loop
      vertex -1.60054 0.5 -2.8
      vertex -1.7 0 -3.5
      vertex -1.57059 0.650561 -3.5
    endloop
  endfacet
  facet normal -0.195098 -0.980784 0
    outer loop
      vertex 0 1.7 -3.5
      vertex 0.650561 1.57059 -0.5
      vertex 0 1.7 -0.5
    endloop
  endfacet
  facet normal -0.195098 -0.980784 -0
    outer loop
      vertex 0.650561 1.57059 -0.5
      vertex 0 1.7 -3.5
      vertex 0.650561 1.57059 -3.5
    endloop
  endfacet
  facet normal -0.195098 0.980784 0
    outer loop
      vertex 0.650561 -1.57059 -3.5
      vertex 0 -1.7 -0.5
      vertex 0.650561 -1.57059 -0.5
    endloop
  endfacet
  facet normal -0.195098 0.980784 0
    outer loop
      vertex 0 -1.7 -0.5
      vertex 0.650561 -1.57059 -3.5
      vertex 0 -1.7 -3.5
    endloop
  endfacet
  facet normal 0.195098 0.980784 -0
    outer loop
      vertex 0 -1.7 -3.5
      vertex -0.650561 -1.57059 -0.5
      vertex 0 -1.7 -0.5
    endloop
  endfacet
  facet normal 0.195098 0.980784 0
    outer loop
      vertex -0.650561 -1.57059 -0.5
      vertex 0 -1.7 -3.5
      vertex -0.650561 -1.57059 -3.5
    endloop
  endfacet
  facet normal -0.555567 -0.831472 0
    outer loop
      vertex 0.650561 1.57059 -3.5
      vertex 1.20208 1.20208 -0.5
      vertex 0.650561 1.57059 -0.5
    endloop
  endfacet
  facet normal -0.555567 -0.831472 -0
    outer loop
      vertex 1.20208 1.20208 -0.5
      vertex 0.650561 1.57059 -3.5
      vertex 1.20208 1.20208 -3.5
    endloop
  endfacet
  facet normal -0.831472 -0.555567 0
    outer loop
      vertex 1.57059 0.650561 -3.5
      vertex 1.20208 1.20208 -0.5
      vertex 1.20208 1.20208 -3.5
    endloop
  endfacet
  facet normal -0.831472 -0.555567 0
    outer loop
      vertex 1.20208 1.20208 -0.5
      vertex 1.57059 0.650561 -3.5
      vertex 1.57059 0.650561 -0.5
    endloop
  endfacet
  facet normal 0.195098 -0.980784 0
    outer loop
      vertex -0.650561 1.57059 -3.5
      vertex 0 1.7 -0.5
      vertex -0.650561 1.57059 -0.5
    endloop
  endfacet
  facet normal 0.195098 -0.980784 0
    outer loop
      vertex 0 1.7 -0.5
      vertex -0.650561 1.57059 -3.5
      vertex 0 1.7 -3.5
    endloop
  endfacet
  facet normal 0.555567 -0.831472 0
    outer loop
      vertex -1.20208 1.20208 -3.5
      vertex -0.650561 1.57059 -0.5
      vertex -1.20208 1.20208 -0.5
    endloop
  endfacet
  facet normal 0.555567 -0.831472 0
    outer loop
      vertex -0.650561 1.57059 -0.5
      vertex -1.20208 1.20208 -3.5
      vertex -0.650561 1.57059 -3.5
    endloop
  endfacet
  facet normal 0.980784 0.195098 0
    outer loop
      vertex -1.7 0 -0.5
      vertex -1.60054 -0.5 -0.8
      vertex -1.7 0 -0.8
    endloop
  endfacet
  facet normal 0.980783 0.1951 0
    outer loop
      vertex -1.60054 -0.5 -0.8
      vertex -1.57059 -0.650561 -0.5
      vertex -1.60054 -0.5 -2.8
    endloop
  endfacet
  facet normal 0.980784 0.195098 -1.01984e-06
    outer loop
      vertex -1.57059 -0.650561 -0.5
      vertex -1.60054 -0.5 -0.8
      vertex -1.7 0 -0.5
    endloop
  endfacet
  facet normal 0.980784 0.195098 0
    outer loop
      vertex -1.60054 -0.5 -2.8
      vertex -1.7 0 -3.5
      vertex -1.7 0 -2.8
    endloop
  endfacet
  facet normal 0.980784 0.195098 4.37074e-07
    outer loop
      vertex -1.60054 -0.5 -2.8
      vertex -1.57059 -0.650561 -3.5
      vertex -1.7 0 -3.5
    endloop
  endfacet
  facet normal 0.980783 0.1951 -0
    outer loop
      vertex -1.57059 -0.650561 -3.5
      vertex -1.60054 -0.5 -2.8
      vertex -1.57059 -0.650561 -0.5
    endloop
  endfacet
  facet normal 0.555567 0.831472 -0
    outer loop
      vertex -0.650561 -1.57059 -3.5
      vertex -1.20208 -1.20208 -0.5
      vertex -0.650561 -1.57059 -0.5
    endloop
  endfacet
  facet normal 0.555567 0.831472 0
    outer loop
      vertex -1.20208 -1.20208 -0.5
      vertex -0.650561 -1.57059 -3.5
      vertex -1.20208 -1.20208 -3.5
    endloop
  endfacet
  facet normal 0.831472 -0.555567 0
    outer loop
      vertex -1.57059 0.650561 -0.5
      vertex -1.20208 1.20208 -3.5
      vertex -1.20208 1.20208 -0.5
    endloop
  endfacet
  facet normal 0.831472 -0.555567 0
    outer loop
      vertex -1.20208 1.20208 -3.5
      vertex -1.57059 0.650561 -0.5
      vertex -1.57059 0.650561 -3.5
    endloop
  endfacet
  facet normal -0.555567 0.831472 0
    outer loop
      vertex 1.20208 -1.20208 -3.5
      vertex 0.650561 -1.57059 -0.5
      vertex 1.20208 -1.20208 -0.5
    endloop
  endfacet
  facet normal -0.555567 0.831472 0
    outer loop
      vertex 0.650561 -1.57059 -0.5
      vertex 1.20208 -1.20208 -3.5
      vertex 0.650561 -1.57059 -3.5
    endloop
  endfacet
  facet normal -0.980784 0.195098 0
    outer loop
      vertex 1.7 0 -3.5
      vertex 1.60054 -0.5 -2.8
      vertex 1.7 0 -2.8
    endloop
  endfacet
  facet normal -0.980783 0.1951 0
    outer loop
      vertex 1.57059 -0.650561 -0.5
      vertex 1.60054 -0.5 -2.8
      vertex 1.57059 -0.650561 -3.5
    endloop
  endfacet
  facet normal -0.980784 0.195098 4.37074e-07
    outer loop
      vertex 1.57059 -0.650561 -3.5
      vertex 1.60054 -0.5 -2.8
      vertex 1.7 0 -3.5
    endloop
  endfacet
  facet normal -0.980784 0.195098 0
    outer loop
      vertex 1.60054 -0.5 -0.8
      vertex 1.7 0 -0.5
      vertex 1.7 0 -0.8
    endloop
  endfacet
  facet normal -0.980784 0.195098 -1.01984e-06
    outer loop
      vertex 1.60054 -0.5 -0.8
      vertex 1.57059 -0.650561 -0.5
      vertex 1.7 0 -0.5
    endloop
  endfacet
  facet normal -0.980783 0.1951 0
    outer loop
      vertex 1.60054 -0.5 -2.8
      vertex 1.57059 -0.650561 -0.5
      vertex 1.60054 -0.5 -0.8
    endloop
  endfacet
  facet normal 0.831472 0.555567 0
    outer loop
      vertex -1.20208 -1.20208 -0.5
      vertex -1.57059 -0.650561 -3.5
      vertex -1.57059 -0.650561 -0.5
    endloop
  endfacet
  facet normal 0.831472 0.555567 0
    outer loop
      vertex -1.57059 -0.650561 -3.5
      vertex -1.20208 -1.20208 -0.5
      vertex -1.20208 -1.20208 -3.5
    endloop
  endfacet
  facet normal -0.831472 0.555567 0
    outer loop
      vertex 1.20208 -1.20208 -3.5
      vertex 1.57059 -0.650561 -0.5
      vertex 1.57059 -0.650561 -3.5
    endloop
  endfacet
  facet normal -0.831472 0.555567 0
    outer loop
      vertex 1.57059 -0.650561 -0.5
      vertex 1.20208 -1.20208 -3.5
      vertex 1.20208 -1.20208 -0.5
    endloop
  endfacet
  facet normal 0 0 -1
    outer loop
      vertex 2 -0.5 -0.8
      vertex 1.7 0 -0.8
      vertex 2 0.5 -0.8
    endloop
  endfacet
  facet normal 0 -0 -1
    outer loop
      vertex 1.7 0 -0.8
      vertex 2 -0.5 -0.8
      vertex 1.60054 -0.5 -0.8
    endloop
  endfacet
  facet normal -0 0 -1
    outer loop
      vertex 2 0.5 -0.8
      vertex 1.7 0 -0.8
      vertex 1.60054 0.5 -0.8
    endloop
  endfacet
  facet normal -1 0 0
    outer loop
      vertex 2 -0.5 -2.8
      vertex 2 0.5 -0.8
      vertex 2 0.5 -2.8
    endloop
  endfacet
  facet normal -1 -0 0
    outer loop
      vertex 2 0.5 -0.8
      vertex 2 -0.5 -2.8
      vertex 2 -0.5 -0.8
    endloop
  endfacet
  facet normal 0 0 1
    outer loop
      vertex 2 0.5 -2.8
      vertex 1.7 0 -2.8
      vertex 2 -0.5 -2.8
    endloop
  endfacet
  facet normal 0 -0 1
    outer loop
      vertex 1.7 0 -2.8
      vertex 2 0.5 -2.8
      vertex 1.60054 0.5 -2.8
    endloop
  endfacet
  facet normal 0 0 1
    outer loop
      vertex 2 -0.5 -2.8
      vertex 1.7 0 -2.8
      vertex 1.60054 -0.5 -2.8
    endloop
  endfacet
  facet normal 0 1 -0
    outer loop
      vertex 2 -0.5 -2.8
      vertex 1.60054 -0.5 -0.8
      vertex 2 -0.5 -0.8
    endloop
  endfacet
  facet normal 0 1 0
    outer loop
      vertex 1.60054 -0.5 -0.8
      vertex 2 -0.5 -2.8
      vertex 1.60054 -0.5 -2.8
    endloop
  endfacet
  facet normal 0 -1 0
    outer loop
      vertex 1.60054 0.5 -2.8
      vertex 2 0.5 -0.8
      vertex 1.60054 0.5 -0.8
    endloop
  endfacet
  facet normal 0 -1 -0
    outer loop
      vertex 2 0.5 -0.8
      vertex 1.60054 0.5 -2.8
      vertex 2 0.5 -2.8
    endloop
  endfacet
  facet normal 1 -0 0
    outer loop
      vertex -2 -0.5 -0.8
      vertex -2 0.5 -2.8
      vertex -2 0.5 -0.8
    endloop
  endfacet
  facet normal 1 0 0
    outer loop
      vertex -2 0.5 -2.8
      vertex -2 -0.5 -0.8
      vertex -2 -0.5 -2.8
    endloop
  endfacet
  facet normal 0 0 -1
    outer loop
      vertex -1.60054 -0.5 -0.8
      vertex -2 -0.5 -0.8
      vertex -1.7 0 -0.8
    endloop
  endfacet
  facet normal 0 0 -1
    outer loop
      vertex -2 0.5 -0.8
      vertex -1.7 0 -0.8
      vertex -2 -0.5 -0.8
    endloop
  endfacet
  facet normal 0 0 -1
    outer loop
      vertex -1.7 0 -0.8
      vertex -2 0.5 -0.8
      vertex -1.60054 0.5 -0.8
    endloop
  endfacet
  facet normal 0 0 1
    outer loop
      vertex -1.60054 0.5 -2.8
      vertex -2 0.5 -2.8
      vertex -1.7 0 -2.8
    endloop
  endfacet
  facet normal 0 0 1
    outer loop
      vertex -2 -0.5 -2.8
      vertex -1.7 0 -2.8
      vertex -2 0.5 -2.8
    endloop
  endfacet
  facet normal 0 0 1
    outer loop
      vertex -1.7 0 -2.8
      vertex -2 -0.5 -2.8
      vertex -1.60054 -0.5 -2.8
    endloop
  endfacet
  facet normal 0 1 -0
    outer loop
      vertex -1.60054 -0.5 -2.8
      vertex -2 -0.5 -0.8
      vertex -1.60054 -0.5 -0.8
    endloop
  endfacet
  facet normal 0 1 0
    outer loop
      vertex -2 -0.5 -0.8
      vertex -1.60054 -0.5 -2.8
      vertex -2 -0.5 -2.8
    endloop
  endfacet
  facet normal 0 -1 0
    outer loop
      vertex -2 0.5 -2.8
      vertex -1.60054 0.5 -0.8
      vertex -2 0.5 -0.8
    endloop
  endfacet
  facet normal 0 -1 -0
    outer loop
      vertex -1.60054 0.5 -0.8
      vertex -2 0.5 -2.8
      vertex -1.60054 0.5 -2.8
    endloop
  endfacet
  facet normal 0 0 1
    outer loop
      vertex 2 0.5 3.7
      vertex 1.7 0 3.7
      vertex 2 -0.5 3.7
    endloop
  endfacet
  facet normal 0 -0 1
    outer loop
      vertex 1.7 0 3.7
      vertex 2 0.5 3.7
      vertex 1.60054 0.5 3.7
    endloop
  endfacet
  facet normal 0 0 1
    outer loop
      vertex 2 -0.5 3.7
      vertex 1.7 0 3.7
      vertex 1.60054 -0.5 3.7
    endloop
  endfacet
  facet normal 1 -0 0
    outer loop
      vertex 2 -0.5 3.7
      vertex 2 0.5 3.68715
      vertex 2 0.5 3.7
    endloop
  endfacet
  facet normal 1 0 0
    outer loop
      vertex 2 0.5 3.68715
      vertex 2 -0.5 3.7
      vertex 2 -0.5 3.68715
    endloop
  endfacet
  facet normal 0 1 -0
    outer loop
      vertex 2 0.5 3.68715
      vertex 1.60054 0.5 3.7
      vertex 2 0.5 3.7
    endloop
  endfacet
  facet normal 0 1 -0
    outer loop
      vertex 1.6407 0.5 2.7
      vertex 1.60054 0.5 3.7
      vertex 2 0.5 3.68715
    endloop
  endfacet
  facet normal 0 1 0
    outer loop
      vertex 1.60054 0.5 3.7
      vertex 1.6407 0.5 2.7
      vertex 1.60054 0.5 2.7
    endloop
  endfacet
  facet normal 0 0 -1
    outer loop
      vertex -1.6407 -0.298095 2.7
      vertex -1.7 0 2.7
      vertex -1.6407 0.298095 2.7
    endloop
  endfacet
  facet normal 0 0 -1
    outer loop
      vertex 1.60054 -0.5 2.7
      vertex 1.6407 -0.298095 2.7
      vertex 1.6407 -0.5 2.7
    endloop
  endfacet
  facet normal 0 0 -1
    outer loop
      vertex 0.650561 -1.57059 2.7
      vertex 1.6407 -0.298095 2.7
      vertex 1.60054 -0.5 2.7
    endloop
  endfacet
  facet normal 0 0 -1
    outer loop
      vertex 1.6407 -0.298095 2.7
      vertex -1.6407 -0.298095 2.7
      vertex 1.6407 0.298095 2.7
    endloop
  endfacet
  facet normal 0 0 -1
    outer loop
      vertex 1.6407 0.298095 2.7
      vertex 1.60054 0.5 2.7
      vertex 1.6407 0.5 2.7
    endloop
  endfacet
  facet normal 0 0 -1
    outer loop
      vertex 1.20208 -1.20208 2.7
      vertex 1.60054 -0.5 2.7
      vertex 1.57059 -0.650561 2.7
    endloop
  endfacet
  facet normal 0 0 -1
    outer loop
      vertex 0.650561 -1.57059 2.7
      vertex 1.60054 -0.5 2.7
      vertex 1.20208 -1.20208 2.7
    endloop
  endfacet
  facet normal 0 0 -1
    outer loop
      vertex -1.6407 0.298095 2.7
      vertex 1.6407 0.298095 2.7
      vertex -1.6407 -0.298095 2.7
    endloop
  endfacet
  facet normal 0 0 -1
    outer loop
      vertex 1.60054 0.5 2.7
      vertex 1.20208 1.20208 2.7
      vertex 1.57059 0.650561 2.7
    endloop
  endfacet
  facet normal -0 0 -1
    outer loop
      vertex 1.6407 -0.298095 2.7
      vertex 0.650561 -1.57059 2.7
      vertex -1.6407 -0.298095 2.7
    endloop
  endfacet
  facet normal 0 -0 -1
    outer loop
      vertex 0.650561 1.57059 2.7
      vertex 1.6407 0.298095 2.7
      vertex -1.6407 0.298095 2.7
    endloop
  endfacet
  facet normal 0 0 -1
    outer loop
      vertex -1.6407 -0.298095 2.7
      vertex 0.650561 -1.57059 2.7
      vertex 0 -1.7 2.7
    endloop
  endfacet
  facet normal 0 0 -1
    outer loop
      vertex 1.6407 0.298095 2.7
      vertex 0.650561 1.57059 2.7
      vertex 1.60054 0.5 2.7
    endloop
  endfacet
  facet normal 0 0 -1
    outer loop
      vertex -1.6407 -0.298095 2.7
      vertex 0 -1.7 2.7
      vertex -0.650561 -1.57059 2.7
    endloop
  endfacet
  facet normal 0 0 -1
    outer loop
      vertex 1.60054 0.5 2.7
      vertex 0.650561 1.57059 2.7
      vertex 1.20208 1.20208 2.7
    endloop
  endfacet
  facet normal 0 0 -1
    outer loop
      vertex -1.6407 -0.298095 2.7
      vertex -0.650561 -1.57059 2.7
      vertex -1.20208 -1.20208 2.7
    endloop
  endfacet
  facet normal -0 0 -1
    outer loop
      vertex 0.650561 1.57059 2.7
      vertex -1.6407 0.298095 2.7
      vertex 0 1.7 2.7
    endloop
  endfacet
  facet normal 0 0 -1
    outer loop
      vertex -1.60054 -0.5 2.7
      vertex -1.20208 -1.20208 2.7
      vertex -1.57059 -0.650561 2.7
    endloop
  endfacet
  facet normal 0 0 -1
    outer loop
      vertex -1.6407 -0.298095 2.7
      vertex -1.20208 -1.20208 2.7
      vertex -1.60054 -0.5 2.7
    endloop
  endfacet
  facet normal 0 0 -1
    outer loop
      vertex 0 1.7 2.7
      vertex -1.6407 0.298095 2.7
      vertex -0.650561 1.57059 2.7
    endloop
  endfacet
  facet normal 0 0 -1
    outer loop
      vertex -1.20208 1.20208 2.7
      vertex -1.60054 0.5 2.7
      vertex -1.57059 0.650561 2.7
    endloop
  endfacet
  facet normal 0 0 -1
    outer loop
      vertex -1.6407 -0.298095 2.7
      vertex -1.60054 -0.5 2.7
      vertex -1.6407 -0.5 2.7
    endloop
  endfacet
  facet normal 0 0 -1
    outer loop
      vertex -0.650561 1.57059 2.7
      vertex -1.6407 0.298095 2.7
      vertex -1.20208 1.20208 2.7
    endloop
  endfacet
  facet normal 0 0 -1
    outer loop
      vertex -1.20208 1.20208 2.7
      vertex -1.6407 0.298095 2.7
      vertex -1.60054 0.5 2.7
    endloop
  endfacet
  facet normal -0 0 -1
    outer loop
      vertex -1.60054 0.5 2.7
      vertex -1.6407 0.298095 2.7
      vertex -1.6407 0.5 2.7
    endloop
  endfacet
  facet normal -0 0 -1
    outer loop
      vertex 1.7 0 2.7
      vertex 1.6407 -0.298095 2.7
      vertex 1.6407 0.298095 2.7
    endloop
  endfacet
  facet normal 0 -1 0
    outer loop
      vertex 1.60054 -0.5 3.7
      vertex 2 -0.5 3.68715
      vertex 2 -0.5 3.7
    endloop
  endfacet
  facet normal 0 -1 0
    outer loop
      vertex 1.6407 -0.5 2.7
      vertex 1.60054 -0.5 3.7
      vertex 1.60054 -0.5 2.7
    endloop
  endfacet
  facet normal 0 -1 0
    outer loop
      vertex 1.60054 -0.5 3.7
      vertex 1.6407 -0.5 2.7
      vertex 2 -0.5 3.68715
    endloop
  endfacet
  facet normal 0.939691 0 -0.342026
    outer loop
      vertex 2 0.5 3.68715
      vertex 1.6407 0.298095 2.7
      vertex 1.6407 0.5 2.7
    endloop
  endfacet
  facet normal 0.93969 1.273e-05 -0.342028
    outer loop
      vertex 2 0.5 3.68715
      vertex 1.7 0 2.86291
      vertex 1.6407 0.298095 2.7
    endloop
  endfacet
  facet normal 0.939692 0 -0.342021
    outer loop
      vertex 2 -0.5 3.68715
      vertex 1.7 0 2.86291
      vertex 2 0.5 3.68715
    endloop
  endfacet
  facet normal 0.93969 -1.273e-05 -0.342028
    outer loop
      vertex 1.7 0 2.86291
      vertex 2 -0.5 3.68715
      vertex 1.6407 -0.298095 2.7
    endloop
  endfacet
  facet normal 0.939691 0 -0.342026
    outer loop
      vertex 1.6407 -0.298095 2.7
      vertex 2 -0.5 3.68715
      vertex 1.6407 -0.5 2.7
    endloop
  endfacet
  facet normal -1 0 0
    outer loop
      vertex -2 -0.5 3.68715
      vertex -2 0.5 3.7
      vertex -2 0.5 3.68715
    endloop
  endfacet
  facet normal -1 -0 0
    outer loop
      vertex -2 0.5 3.7
      vertex -2 -0.5 3.68715
      vertex -2 -0.5 3.7
    endloop
  endfacet
  facet normal 0 0 1
    outer loop
      vertex -1.60054 0.5 3.7
      vertex -2 0.5 3.7
      vertex -1.7 0 3.7
    endloop
  endfacet
  facet normal 0 0 1
    outer loop
      vertex -2 -0.5 3.7
      vertex -1.7 0 3.7
      vertex -2 0.5 3.7
    endloop
  endfacet
  facet normal 0 0 1
    outer loop
      vertex -1.7 0 3.7
      vertex -2 -0.5 3.7
      vertex -1.60054 -0.5 3.7
    endloop
  endfacet
  facet normal 0 1 0
    outer loop
      vertex -1.60054 0.5 3.7
      vertex -2 0.5 3.68715
      vertex -2 0.5 3.7
    endloop
  endfacet
  facet normal 0 1 0
    outer loop
      vertex -1.6407 0.5 2.7
      vertex -1.60054 0.5 3.7
      vertex -1.60054 0.5 2.7
    endloop
  endfacet
  facet normal 0 1 0
    outer loop
      vertex -1.60054 0.5 3.7
      vertex -1.6407 0.5 2.7
      vertex -2 0.5 3.68715
    endloop
  endfacet
  facet normal 0 -1 0
    outer loop
      vertex -2 -0.5 3.68715
      vertex -1.60054 -0.5 3.7
      vertex -2 -0.5 3.7
    endloop
  endfacet
  facet normal 0 -1 0
    outer loop
      vertex -1.6407 -0.5 2.7
      vertex -1.60054 -0.5 3.7
      vertex -2 -0.5 3.68715
    endloop
  endfacet
  facet normal 0 -1 -0
    outer loop
      vertex -1.60054 -0.5 3.7
      vertex -1.6407 -0.5 2.7
      vertex -1.60054 -0.5 2.7
    endloop
  endfacet
  facet normal -0.939691 0 -0.342026
    outer loop
      vertex -1.6407 0.298095 2.7
      vertex -2 0.5 3.68715
      vertex -1.6407 0.5 2.7
    endloop
  endfacet
  facet normal -0.93969 1.273e-05 -0.342028
    outer loop
      vertex -1.7 0 2.86291
      vertex -2 0.5 3.68715
      vertex -1.6407 0.298095 2.7
    endloop
  endfacet
  facet normal -0.93969 -1.273e-05 -0.342028
    outer loop
      vertex -2 -0.5 3.68715
      vertex -1.7 0 2.86291
      vertex -1.6407 -0.298095 2.7
    endloop
  endfacet
  facet normal -0.939691 0 -0.342026
    outer loop
      vertex -2 -0.5 3.68715
      vertex -1.6407 -0.298095 2.7
      vertex -1.6407 -0.5 2.7
    endloop
  endfacet
  facet normal -0.939692 0 -0.342021
    outer loop
      vertex -1.7 0 2.86291
      vertex -2 -0.5 3.68715
      vertex -2 0.5 3.68715
    endloop
  endfacet
  facet normal 0.980783 0.1951 0
    outer loop
      vertex 1.57059 0.650561 4.6
      vertex 1.60054 0.5 3.7
      vertex 1.57059 0.650561 2.7
    endloop
  endfacet
  facet normal 0.980784 0.195098 3.39946e-07
    outer loop
      vertex 1.7 0 4.6
      vertex 1.60054 0.5 3.7
      vertex 1.57059 0.650561 4.6
    endloop
  endfacet
  facet normal 0.980784 0.195098 0
    outer loop
      vertex 1.60054 0.5 3.7
      vertex 1.7 0 4.6
      vertex 1.7 0 3.7
    endloop
  endfacet
  facet normal 0.980783 0.1951 0
    outer loop
      vertex 1.57059 0.650561 2.7
      vertex 1.60054 0.5 3.7
      vertex 1.60054 0.5 2.7
    endloop
  endfacet
  facet normal 0.980782 0.195107 -0
    outer loop
      vertex 1.7 0 2.7
      vertex 1.6407 0.298095 2.7
      vertex 1.7 0 2.86291
    endloop
  endfacet
  facet normal -0.980783 0.1951 0
    outer loop
      vertex -1.60054 0.5 3.7
      vertex -1.57059 0.650561 2.7
      vertex -1.60054 0.5 2.7
    endloop
  endfacet
  facet normal -0.980783 0.1951 0
    outer loop
      vertex -1.57059 0.650561 2.7
      vertex -1.60054 0.5 3.7
      vertex -1.57059 0.650561 4.6
    endloop
  endfacet
  facet normal -0.980784 0.195098 0
    outer loop
      vertex -1.7 0 4.6
      vertex -1.60054 0.5 3.7
      vertex -1.7 0 3.7
    endloop
  endfacet
  facet normal -0.980784 0.195098 3.39946e-07
    outer loop
      vertex -1.60054 0.5 3.7
      vertex -1.7 0 4.6
      vertex -1.57059 0.650561 4.6
    endloop
  endfacet
  facet normal -0.980782 0.195107 0
    outer loop
      vertex -1.6407 0.298095 2.7
      vertex -1.7 0 2.7
      vertex -1.7 0 2.86291
    endloop
  endfacet
  facet normal 0.195098 0.980784 -0
    outer loop
      vertex 0.650561 1.57059 2.7
      vertex 0 1.7 4.6
      vertex 0.650561 1.57059 4.6
    endloop
  endfacet
  facet normal 0.195098 0.980784 0
    outer loop
      vertex 0 1.7 4.6
      vertex 0.650561 1.57059 2.7
      vertex 0 1.7 2.7
    endloop
  endfacet
  facet normal 0.555567 0.831472 -0
    outer loop
      vertex 1.20208 1.20208 2.7
      vertex 0.650561 1.57059 4.6
      vertex 1.20208 1.20208 4.6
    endloop
  endfacet
  facet normal 0.555567 0.831472 0
    outer loop
      vertex 0.650561 1.57059 4.6
      vertex 1.20208 1.20208 2.7
      vertex 0.650561 1.57059 2.7
    endloop
  endfacet
  facet normal 0.831472 0.555567 0
    outer loop
      vertex 1.57059 0.650561 4.6
      vertex 1.20208 1.20208 2.7
      vertex 1.20208 1.20208 4.6
    endloop
  endfacet
  facet normal 0.831472 0.555567 0
    outer loop
      vertex 1.20208 1.20208 2.7
      vertex 1.57059 0.650561 4.6
      vertex 1.57059 0.650561 2.7
    endloop
  endfacet
  facet normal -0.555567 0.831472 0
    outer loop
      vertex -0.650561 1.57059 2.7
      vertex -1.20208 1.20208 4.6
      vertex -0.650561 1.57059 4.6
    endloop
  endfacet
  facet normal -0.555567 0.831472 0
    outer loop
      vertex -1.20208 1.20208 4.6
      vertex -0.650561 1.57059 2.7
      vertex -1.20208 1.20208 2.7
    endloop
  endfacet
  facet normal -0.831472 0.555567 0
    outer loop
      vertex -1.57059 0.650561 2.7
      vertex -1.20208 1.20208 4.6
      vertex -1.20208 1.20208 2.7
    endloop
  endfacet
  facet normal -0.831472 0.555567 0
    outer loop
      vertex -1.20208 1.20208 4.6
      vertex -1.57059 0.650561 2.7
      vertex -1.57059 0.650561 4.6
    endloop
  endfacet
  facet normal -0.195098 0.980784 0
    outer loop
      vertex 0 1.7 2.7
      vertex -0.650561 1.57059 4.6
      vertex 0 1.7 4.6
    endloop
  endfacet
  facet normal -0.195098 0.980784 0
    outer loop
      vertex -0.650561 1.57059 4.6
      vertex 0 1.7 2.7
      vertex -0.650561 1.57059 2.7
    endloop
  endfacet
  facet normal 0.980782 -0.195107 0
    outer loop
      vertex 1.7 0 2.86291
      vertex 1.6407 -0.298095 2.7
      vertex 1.7 0 2.7
    endloop
  endfacet
  facet normal 0.980784 -0.195098 0
    outer loop
      vertex 1.7 0 4.6
      vertex 1.60054 -0.5 3.7
      vertex 1.7 0 3.7
    endloop
  endfacet
  facet normal 0.980784 -0.195098 3.39946e-07
    outer loop
      vertex 1.57059 -0.650561 4.6
      vertex 1.60054 -0.5 3.7
      vertex 1.7 0 4.6
    endloop
  endfacet
  facet normal 0.980783 -0.1951 0
    outer loop
      vertex 1.57059 -0.650561 2.7
      vertex 1.60054 -0.5 3.7
      vertex 1.57059 -0.650561 4.6
    endloop
  endfacet
  facet normal 0.980783 -0.1951 0
    outer loop
      vertex 1.60054 -0.5 3.7
      vertex 1.57059 -0.650561 2.7
      vertex 1.60054 -0.5 2.7
    endloop
  endfacet
  facet normal -0.555567 -0.831472 0
    outer loop
      vertex -1.20208 -1.20208 2.7
      vertex -0.650561 -1.57059 4.6
      vertex -1.20208 -1.20208 4.6
    endloop
  endfacet
  facet normal -0.555567 -0.831472 -0
    outer loop
      vertex -0.650561 -1.57059 4.6
      vertex -1.20208 -1.20208 2.7
      vertex -0.650561 -1.57059 2.7
    endloop
  endfacet
  facet normal -0.980782 -0.195107 -0
    outer loop
      vertex -1.7 0 2.86291
      vertex -1.7 0 2.7
      vertex -1.6407 -0.298095 2.7
    endloop
  endfacet
  facet normal -0.980783 -0.1951 0
    outer loop
      vertex -1.60054 -0.5 2.7
      vertex -1.57059 -0.650561 2.7
      vertex -1.60054 -0.5 3.7
    endloop
  endfacet
  facet normal -0.980784 -0.195098 0
    outer loop
      vertex -1.60054 -0.5 3.7
      vertex -1.7 0 4.6
      vertex -1.7 0 3.7
    endloop
  endfacet
  facet normal -0.980784 -0.195098 3.39946e-07
    outer loop
      vertex -1.60054 -0.5 3.7
      vertex -1.57059 -0.650561 4.6
      vertex -1.7 0 4.6
    endloop
  endfacet
  facet normal -0.980783 -0.1951 -0
    outer loop
      vertex -1.57059 -0.650561 4.6
      vertex -1.60054 -0.5 3.7
      vertex -1.57059 -0.650561 2.7
    endloop
  endfacet
  facet normal 0.195098 -0.980784 0
    outer loop
      vertex 0 -1.7 2.7
      vertex 0.650561 -1.57059 4.6
      vertex 0 -1.7 4.6
    endloop
  endfacet
  facet normal 0.195098 -0.980784 0
    outer loop
      vertex 0.650561 -1.57059 4.6
      vertex 0 -1.7 2.7
      vertex 0.650561 -1.57059 2.7
    endloop
  endfacet
  facet normal -0.195098 -0.980784 0
    outer loop
      vertex -0.650561 -1.57059 2.7
      vertex 0 -1.7 4.6
      vertex -0.650561 -1.57059 4.6
    endloop
  endfacet
  facet normal -0.195098 -0.980784 -0
    outer loop
      vertex 0 -1.7 4.6
      vertex -0.650561 -1.57059 2.7
      vertex 0 -1.7 2.7
    endloop
  endfacet
  facet normal -0.831472 -0.555567 0
    outer loop
      vertex -1.20208 -1.20208 2.7
      vertex -1.57059 -0.650561 4.6
      vertex -1.57059 -0.650561 2.7
    endloop
  endfacet
  facet normal -0.831472 -0.555567 0
    outer loop
      vertex -1.57059 -0.650561 4.6
      vertex -1.20208 -1.20208 2.7
      vertex -1.20208 -1.20208 4.6
    endloop
  endfacet
  facet normal 0.555567 -0.831472 0
    outer loop
      vertex 0.650561 -1.57059 2.7
      vertex 1.20208 -1.20208 4.6
      vertex 0.650561 -1.57059 4.6
    endloop
  endfacet
  facet normal 0.555567 -0.831472 0
    outer loop
      vertex 1.20208 -1.20208 4.6
      vertex 0.650561 -1.57059 2.7
      vertex 1.20208 -1.20208 2.7
    endloop
  endfacet
  facet normal 0.831472 -0.555567 0
    outer loop
      vertex 1.20208 -1.20208 4.6
      vertex 1.57059 -0.650561 2.7
      vertex 1.57059 -0.650561 4.6
    endloop
  endfacet
  facet normal 0.831472 -0.555567 0
    outer loop
      vertex 1.57059 -0.650561 2.7
      vertex 1.20208 -1.20208 4.6
      vertex 1.20208 -1.20208 2.7
    endloop
  endfacet
  facet normal -1 0 0
    outer loop
      vertex -3.5 -3.5 4.6
      vertex -3.5 3.5 5.6
      vertex -3.5 3.5 4.6
    endloop
  endfacet
  facet normal -1 -0 0
    outer loop
      vertex -3.5 3.5 5.6
      vertex -3.5 -3.5 4.6
      vertex -3.5 -3.5 5.6
    endloop
  endfacet
  facet normal -0 0 1
    outer loop
      vertex -3.5 3.5 5.6
      vertex 3.5 -3.5 5.6
      vertex 3.5 3.5 5.6
    endloop
  endfacet
  facet normal 0 0 1
    outer loop
      vertex 3.5 -3.5 5.6
      vertex -3.5 3.5 5.6
      vertex -3.5 -3.5 5.6
    endloop
  endfacet
  facet normal 1 -0 0
    outer loop
      vertex 3.5 -3.5 5.6
      vertex 3.5 3.5 4.6
      vertex 3.5 3.5 5.6
    endloop
  endfacet
  facet normal 1 0 0
    outer loop
      vertex 3.5 3.5 4.6
      vertex 3.5 -3.5 5.6
      vertex 3.5 -3.5 4.6
    endloop
  endfacet
  facet normal 0 1 -0
    outer loop
      vertex 3.5 3.5 4.6
      vertex -3.5 3.5 5.6
      vertex 3.5 3.5 5.6
    endloop
  endfacet
  facet normal 0 1 0
    outer loop
      vertex -3.5 3.5 5.6
      vertex 3.5 3.5 4.6
      vertex -3.5 3.5 4.6
    endloop
  endfacet
  facet normal 0 0 -1
    outer loop
      vertex 3.5 -3.5 4.6
      vertex 1.7 0 4.6
      vertex 3.5 3.5 4.6
    endloop
  endfacet
  facet normal 0 0 -1
    outer loop
      vertex 3.5 -3.5 4.6
      vertex 1.57059 -0.650561 4.6
      vertex 1.7 0 4.6
    endloop
  endfacet
  facet normal 0 0 -1
    outer loop
      vertex 3.5 -3.5 4.6
      vertex 1.20208 -1.20208 4.6
      vertex 1.57059 -0.650561 4.6
    endloop
  endfacet
  facet normal 0 0 -1
    outer loop
      vertex 3.5 -3.5 4.6
      vertex 0.650561 -1.57059 4.6
      vertex 1.20208 -1.20208 4.6
    endloop
  endfacet
  facet normal 0 0 -1
    outer loop
      vertex 3.5 -3.5 4.6
      vertex 0 -1.7 4.6
      vertex 0.650561 -1.57059 4.6
    endloop
  endfacet
  facet normal 0 0 -1
    outer loop
      vertex -3.5 -3.5 4.6
      vertex 0 -1.7 4.6
      vertex 3.5 -3.5 4.6
    endloop
  endfacet
  facet normal -0 0 -1
    outer loop
      vertex -1.57059 -0.650561 4.6
      vertex -3.5 -3.5 4.6
      vertex -1.7 0 4.6
    endloop
  endfacet
  facet normal -0 0 -1
    outer loop
      vertex -1.20208 -1.20208 4.6
      vertex -3.5 -3.5 4.6
      vertex -1.57059 -0.650561 4.6
    endloop
  endfacet
  facet normal -0 0 -1
    outer loop
      vertex -0.650561 -1.57059 4.6
      vertex -3.5 -3.5 4.6
      vertex -1.20208 -1.20208 4.6
    endloop
  endfacet
  facet normal -0 0 -1
    outer loop
      vertex 0 -1.7 4.6
      vertex -3.5 -3.5 4.6
      vertex -0.650561 -1.57059 4.6
    endloop
  endfacet
  facet normal 0 0 -1
    outer loop
      vertex 1.57059 0.650561 4.6
      vertex 3.5 3.5 4.6
      vertex 1.7 0 4.6
    endloop
  endfacet
  facet normal 0 0 -1
    outer loop
      vertex 1.20208 1.20208 4.6
      vertex 3.5 3.5 4.6
      vertex 1.57059 0.650561 4.6
    endloop
  endfacet
  facet normal 0 0 -1
    outer loop
      vertex 0.650561 1.57059 4.6
      vertex 3.5 3.5 4.6
      vertex 1.20208 1.20208 4.6
    endloop
  endfacet
  facet normal 0 0 -1
    outer loop
      vertex 0 1.7 4.6
      vertex 3.5 3.5 4.6
      vertex 0.650561 1.57059 4.6
    endloop
  endfacet
  facet normal 0 0 -1
    outer loop
      vertex -3.5 3.5 4.6
      vertex 0 1.7 4.6
      vertex -0.650561 1.57059 4.6
    endloop
  endfacet
  facet normal 0 0 -1
    outer loop
      vertex -3.5 3.5 4.6
      vertex -1.7 0 4.6
      vertex -3.5 -3.5 4.6
    endloop
  endfacet
  facet normal 0 0 -1
    outer loop
      vertex 0 1.7 4.6
      vertex -3.5 3.5 4.6
      vertex 3.5 3.5 4.6
    endloop
  endfacet
  facet normal 0 0 -1
    outer loop
      vertex -1.20208 1.20208 4.6
      vertex -3.5 3.5 4.6
      vertex -0.650561 1.57059 4.6
    endloop
  endfacet
  facet normal 0 0 -1
    outer loop
      vertex -1.57059 0.650561 4.6
      vertex -3.5 3.5 4.6
      vertex -1.20208 1.20208 4.6
    endloop
  endfacet
  facet normal 0 0 -1
    outer loop
      vertex -1.7 0 4.6
      vertex -3.5 3.5 4.6
      vertex -1.57059 0.650561 4.6
    endloop
  endfacet
  facet normal 0 -1 0
    outer loop
      vertex -3.5 -3.5 4.6
      vertex 3.5 -3.5 5.6
      vertex -3.5 -3.5 5.6
    endloop
  endfacet
  facet normal 0 -1 -0
    outer loop
      vertex 3.5 -3.5 5.6
      vertex -3.5 -3.5 4.6
      vertex 3.5 -3.5 4.6
    endloop
  endfacet
endsolid OpenSCAD_Model
